# xmcd CD database file
#
# Track frame offsets:
#	183
#	18495
#	42455
#	64925
#	79380
#	96188
#	112048
#	128330
#	146130
#	162093
#	182323
#	196110
#	216708
#	243025
#	265625
#
# Disc length: 3742 seconds
#
# Revision: 0
# Processed by: cddbd v1.5.1PL0 Copyright (c) Steve Scherf et al.
# Submitted via: CDex 1.51
#
DISCID=cf0e9c0f
DTITLE=Art Farmer and Benny Golson - The Jazztet Disc 1
DYEAR=1961
DGENRE=Jazz
TTITLE0=Mox nix
TTITLE1=Blues march
TTITLE2=Killer Joe
TTITLE3=I remember Clifford
TTITLE4=Park avenue petite
TTITLE5=Avalon
TTITLE6=Easy living
TTITLE7=It's all right with me
TTITLE8=Serenata
TTITLE9=It ain't necessarily so
TTITLE10=The cool one
TTITLE11=My funny valentine
TTITLE12=Hi-fly
TTITLE13=Con alma
TTITLE14=Five spot after dark
EXTD=YEAR: 1961
EXTT0=
EXTT1=
EXTT2=
EXTT3=
EXTT4=
EXTT5=
EXTT6=
EXTT7=
EXTT8=
EXTT9=
EXTT10=
EXTT11=
EXTT12=
EXTT13=
EXTT14=
PLAYORDER=
